<?xml version="1.0" encoding="utf-8"?>
<!-- Generator: Adobe Illustrator 27.0.0, SVG Export Plug-In . SVG Version: 6.00 Build 0)  -->
<svg version="1.1" id="Layer_1" xmlns="http://www.w3.org/2000/svg" xmlns:xlink="http://www.w3.org/1999/xlink" x="0px" y="0px"
	 viewBox="0 0 155 41" style="enable-background:new 0 0 155 41;" xml:space="preserve">
<style type="text/css">
	.st0{enable-background:new    ;}
	.st1{fill:#FFFFFF;}
</style>
<g class="st0">
	<path class="st1" d="M10.9,29.5c0,3.1,0,4.3,0.3,5.7H4c0.2-1.5,0.3-2.8,0.3-5.6V12.6c0-2.2-0.1-3.3-0.3-4.8
		c1.4,0.1,2.3,0.1,4.8,0.1h9.5c2.9,0,4,0,5.5-0.2v6.3c-1.4-0.2-2.7-0.2-5.5-0.2h-7.6v5.4h6.2c2.6,0,3.8-0.1,5.3-0.2v6.1
		c-1.4-0.2-2.8-0.2-5.3-0.2h-6.2V29.5z"/>
	<path class="st1" d="M43.7,35.3c-0.3-1.6-0.5-2.4-0.8-3.6l-0.9-2.8h-9.4l-0.9,2.8c-0.4,1.3-0.7,2.3-0.8,3.6h-7.7
		c0.5-1,0.8-1.8,1.6-4l7.1-19.8c0.6-1.6,0.9-2.6,1.1-3.6h8.6c0.2,1,0.5,1.8,1.1,3.6l7.1,19.8c0.6,1.7,1.2,3.1,1.6,4H43.7z
		 M37.3,13.5l-3.1,9.9h6.2L37.3,13.5z"/>
	<path class="st1" d="M65.2,30.4c0,1.7,0.1,3.2,0.3,4.9h-7.2c0.2-1.5,0.3-3,0.3-4.9v-6.1l-7.6-12.5c-0.6-1-1.3-2.1-2.6-4h8.3
		c0.4,1.2,0.7,2,1.5,3.5l3.7,6.7l3.7-6.7c0.8-1.5,1.3-2.5,1.5-3.5h8.3c-1,1.4-2.2,3.3-2.6,4l-7.5,12.5V30.4z"/>
	<path class="st1" d="M83.6,26.3c0.1,1.2,0.4,1.8,0.9,2.4c0.8,1,2.2,1.5,3.9,1.5c2.5,0,4.1-1.1,4.1-3c0-1-0.5-1.9-1.4-2.3
		c-0.7-0.3-1.5-0.6-4.9-1.4c-3-0.7-4.1-1.1-5.3-1.9c-2.1-1.4-3.2-3.7-3.2-6.3c0-5.1,4.1-8.3,10.6-8.3c4.2,0,7.4,1.3,9.2,3.8
		c0.8,1.1,1.2,2.1,1.6,4l-7,0.8c-0.4-2.1-1.6-3-4.1-3c-2,0-3.5,1.1-3.5,2.6c0,0.9,0.5,1.6,1.5,2.1c0.7,0.3,0.7,0.3,4.5,1.1
		c2.5,0.5,4.1,1.1,5.3,1.9c2.4,1.5,3.6,3.7,3.6,6.7c0,2.5-0.8,4.6-2.3,6.1c-1.9,1.8-4.8,2.8-8.7,2.8c-2.8,0-5.6-0.6-7.3-1.6
		c-1.6-0.9-2.9-2.3-3.6-4.2c-0.3-0.8-0.5-1.5-0.7-3.1L83.6,26.3z"/>
	<path class="st1" d="M121.5,35.3c-0.3-1.6-0.5-2.4-0.8-3.6l-0.9-2.8h-9.4l-0.9,2.8c-0.4,1.3-0.7,2.3-0.8,3.6H101
		c0.5-1,0.8-1.8,1.6-4l7.1-19.8c0.6-1.6,0.9-2.6,1.1-3.6h8.6c0.2,1,0.5,1.8,1.1,3.6l7.1,19.8c0.6,1.7,1.2,3.1,1.6,4H121.5z
		 M115,13.5l-3.1,9.9h6.2L115,13.5z"/>
	<path class="st1" d="M136.3,35.3c-2.3,0-3.6,0-4.9,0.1c0.2-1.2,0.3-2.6,0.3-4.8V13.2c0-2.3-0.1-3.7-0.3-5.3h7.2
		c-0.2,1.7-0.3,2.6-0.3,5.2v16.3h8c2.8,0,3.9,0,5.5-0.2v6.3c-1.2-0.2-2.8-0.2-5.5-0.2H136.3z"/>
</g>
</svg>
